<svg width="100" height="100" viewBox="0 0 100 100" fill="none" xmlns="http://www.w3.org/2000/svg">
<g clip-path="url(#clip0_222_2)">
<path d="M7 56.5207C7 75.0062 18.4079 89 37.1254 89C49.1806 89 62.6817 81.4467 70.7654 71.131C70.7654 71.131 72.2755 71.3544 73.2758 71.3967C77.5789 71.5787 80.5157 68.5812 81.5603 64.4545C83.5687 56.5207 78.0457 52.3058 78.0457 52.3058C78.0457 33.8202 58.1023 29 39.3848 29C20.6673 29 7 38.0351 7 56.5207Z" fill="white" stroke="black"/>
<path d="M32 67H25L28.5 72L32 67Z" fill="#586362"/>
<path d="M57 57H39.9438C39.9438 57 43.9072 65.9244 48.3483 65.9995C52.8613 66.0759 57 57 57 57Z" fill="black"/>
<path d="M13 57H25.1124C25.1124 57 21.9073 64.3852 18.4382 63.9674C15.3117 63.5908 13 57 13 57Z" fill="black"/>
<path d="M57 57H39.9438C39.9438 57 43.9072 65.9244 48.3483 65.9995C52.8613 66.0759 57 57 57 57Z" stroke="black"/>
<path d="M13 57H25.1124C25.1124 57 21.9073 64.3852 18.4382 63.9674C15.3117 63.5908 13 57 13 57Z" stroke="black"/>
<path d="M57 57H39.9438C39.9438 57 43.9072 68.8991 48.3483 68.9994C52.8613 69.1012 57 57 57 57Z" fill="url(#paint0_radial_222_2)"/>
<path d="M13 57H25.1124C25.1124 57 21.9073 66.847 18.4382 66.2898C15.3117 65.7877 13 57 13 57Z" fill="url(#paint1_radial_222_2)"/>
<path d="M32 79.5C32 80.8807 30.433 82 28.5 82C26.567 82 25 80.8807 25 79.5C25 78.1193 26.567 77 28.5 77C30.433 77 32 78.1193 32 79.5Z" fill="black"/>
<path fill-rule="evenodd" clip-rule="evenodd" d="M9.21959 42.2C9.53065 42.5721 16.8349 44.5549 22.2253 46.1903C28.5306 48.1033 46.8384 50.3348 61.6534 49.7192C68.8285 49.4211 78.9591 48.5459 78.9591 48.5459L88.2468 51.7725C98.5329 54.1191 103.3 53.5325 89.2503 46.1903L79.4322 40.3327C79.3063 39.4802 79.151 38.659 78.9591 37.9354C76.5805 28.962 74.3994 25.1819 68.1167 20.4349C62.5055 16.1953 56.3217 13.4637 49.9619 11.8497C41.8414 9.78894 34.6054 11.704 26.764 15.1517C23.7382 16.4821 18.0773 20.2832 13.6522 27.369C8.67054 35.3462 8.71807 41.6 9.21959 42.2ZM41.5829 46.1903L23.0177 42.9637C23.0177 42.9637 20.9438 40.417 21.2576 38.8C21.6351 36.8557 25.2757 35.3462 25.2757 35.3462L41.5829 37.9354C41.5829 37.9354 46.0861 41 45.3337 42.6C44.5813 44.2 41.5829 46.1903 41.5829 46.1903Z" fill="#353535"/>
<path d="M78.9591 48.5459C78.9591 48.5459 68.8285 49.4211 61.6534 49.7192C46.8384 50.3348 28.5306 48.1033 22.2253 46.1903C16.8349 44.5549 9.53065 42.5721 9.21959 42.2C8.71807 41.6 8.67054 35.3462 13.6522 27.369C18.0773 20.2832 23.7382 16.4821 26.764 15.1517C34.6054 11.704 41.8414 9.78894 49.9619 11.8497C56.3217 13.4637 62.5055 16.1953 68.1167 20.4349C74.3994 25.1819 76.5805 28.962 78.9591 37.9354C79.151 38.659 79.3063 39.4802 79.4322 40.3327M78.9591 48.5459L88.2468 51.7725C98.5329 54.1191 103.3 53.5325 89.2503 46.1903L79.4322 40.3327M78.9591 48.5459C78.9591 48.5459 79.9475 43.824 79.4322 40.3327M23.0177 42.9637L41.5829 46.1903C41.5829 46.1903 44.5813 44.2 45.3337 42.6C46.0861 41 41.5829 37.9354 41.5829 37.9354L25.2757 35.3462C25.2757 35.3462 21.6351 36.8557 21.2576 38.8C20.9438 40.417 23.0177 42.9637 23.0177 42.9637Z" stroke="black"/>
<path d="M78.2477 51.7273L57.6648 58L55 56.8182L56.654 50.2727L78.6153 48C78.6153 48 78.9062 49.0421 78.9828 49.7273C79.0697 50.5036 78.799 51.4545 78.799 51.4545L78.2477 51.7273Z" fill="#D9D9D9" stroke="#353535"/>
<path d="M49.0074 42.343C43.0048 39.46 35.4343 39.0151 28.7698 39.0004C21.9604 38.9853 14.2113 39.4224 8.06605 42.343L8.05338 42.349C4.23903 44.1619 2.78285 44.8539 0.884958 49.9569C-0.254647 53.021 -0.649942 58.1931 1.91082 62.3061C4.46777 66.4131 7.79995 67.6869 12.5425 68.7129C18.913 70.091 22.251 64.8784 28.7698 64.8131C35.5722 64.7451 39.1314 70.3062 45.7432 68.7129C50.3697 67.598 53.7624 66.4372 56.0951 62.3061C57.7205 59.4277 56.7974 51.6282 56.0951 49.9569L56.0858 49.9347C54.0042 44.9806 53.8791 44.6829 49.0074 42.343Z" fill="#D9D9D9" stroke="#353535"/>
<path d="M8.1494 61.6971C10.8982 62.5958 20.7538 59.9359 28.8735 60.034C35.9305 60.1194 42.8315 62.9042 46.8658 61.6971C52.4237 60.034 54.5973 57.6606 54.967 53.1047C55.341 48.4958 52.4919 46.5849 48.7499 43.7731C46.6776 42.2159 36.4705 41.0624 28.8735 41.0013C20.7284 40.9358 8.43221 43.3235 7.11329 44.4198C3.62364 47.3204 1.75241 48.6263 2.02638 53.1047C2.27638 57.1912 3.06271 60.034 8.1494 61.6971Z" fill="#353535" stroke="#353535"/>
<path d="M9.4375 64.5C9.4375 65.3284 8.89185 66 8.21875 66C7.54565 66 7 65.3284 7 64.5C7 63.6716 7.54565 63 8.21875 63C8.89185 63 9.4375 63.6716 9.4375 64.5Z" fill="#353535"/>
<path d="M49 64.5C49 65.3284 48.4543 66 47.7812 66C47.1082 66 46.5625 65.3284 46.5625 64.5C46.5625 63.6716 47.1082 63 47.7812 63C48.4543 63 49 63.6716 49 64.5Z" fill="#353535"/>
</g>
<defs>
<radialGradient id="paint0_radial_222_2" cx="0" cy="0" r="1" gradientUnits="userSpaceOnUse" gradientTransform="translate(34.7528 27.5) rotate(90) scale(45.3701 94.4013)">
<stop/>
<stop offset="1" stop-opacity="0"/>
</radialGradient>
<radialGradient id="paint1_radial_222_2" cx="0" cy="0" r="1" gradientUnits="userSpaceOnUse" gradientTransform="translate(34.7528 27.5) rotate(90) scale(45.3701 94.4013)">
<stop/>
<stop offset="1" stop-opacity="0"/>
</radialGradient>
<clipPath id="clip0_222_2">
<rect width="100" height="100" fill="white"/>
</clipPath>
</defs>
</svg>
